<?xml version="1.0" encoding="utf-8"?>
<!-- Generator: Adobe Illustrator 19.2.0, SVG Export Plug-In . SVG Version: 6.00 Build 0)  -->
<svg version="1.1" id="Layer_1" xmlns="http://www.w3.org/2000/svg" xmlns:xlink="http://www.w3.org/1999/xlink" x="0px" y="0px"
	 viewBox="0 0 300 160.7" style="enable-background:new 0 0 300 160.7;" xml:space="preserve">
<style type="text/css">
	.st0{fill:#FFFFFF;}
</style>
<g>
	<path class="st0" d="M171.8,160.7c-1.8-0.4-3.6-0.8-5.4-1.3c-3.5-1-5.2-4.8-3.6-8c1.3-2.6,4.1-3.8,7-3c4.6,1.3,9.1,1,13.4-1.2
		c7.1-3.6,10.3-10.8,9.8-17.3c-0.6-7.9-6.2-14.1-13.4-16.3c-13.1-3.9-21.3-12.7-24.2-25.9c-4-18.1,6.9-35.4,24.8-40.2
		c19-5.1,38.9,7.4,42.2,26.8c2.4,13.6-2.2,24.9-12.9,33.6c-2.7,2.2-6.3,1.8-8.3-0.8c-2-2.6-1.6-6.1,1.2-8.2
		c4.8-3.7,7.7-8.5,8.8-14.5c2-11.5-5.3-22.9-16.7-25.8c-13.4-3.5-26.6,5.6-28.4,19.3c-1.4,11.1,5.7,21.4,16.5,24.7
		c11.8,3.6,19.1,11.5,21.5,23.6c2.9,15-7.2,30.2-22,33.6c-1.3,0.3-2.7,0.6-4,0.8c-1.6,0-3.2,0-4.8,0c-0.4-0.2-0.8-0.2-1.3,0
		C171.9,160.7,171.8,160.7,171.8,160.7z"/>
	<path class="st0" d="M0,79.1c0.3-0.3,0.3-0.7,0.5-1.1c1.2-2.3,3-3.2,5.5-3.2c12.4,0,24.8,0,37.1,0c3.5,0,7,0,10.5,0
		c2,0,2.5-0.8,1.8-2.6c-3.5-9.5-13.1-15.5-23.2-14.7c-6.9,0.6-12.4,3.6-16.6,9.1c-1.9,2.5-5.2,3-7.7,1.1c-2.5-1.8-3.1-5.2-1.2-7.7
		c5.7-7.5,13.2-12,22.5-13.4c17.5-2.5,34.2,9.1,38,26.5c0.5,2.4,0.8,4.9,0.7,7.4c0,2.7-2.1,4.9-4.7,5.3c-0.6,0.1-1.2,0.1-1.8,0.1
		c-15.5,0-31,0-46.5,0c-0.3,0-0.6,0-0.9,0c-1.5,0.1-2.1,0.9-1.5,2.3c1.4,3.8,3.6,7.1,6.8,9.7c10.2,8.4,25,6.8,33-3.7
		c2-2.6,5.5-3.1,8-1.1c2.5,2,2.7,5.4,0.6,8c-5,6.3-11.3,10.4-19.1,12.3C23.7,117.8,4.9,106.2,0.9,88c-0.3-1.4-0.6-2.7-0.9-4.1
		C0,82.3,0,80.7,0,79.1z"/>
	<path class="st0" d="M172,160.7c0.4-0.4,0.8-0.2,1.3,0C172.8,160.7,172.4,160.7,172,160.7z"/>
	<path class="st0" d="M111.4,114.4c-17.1,0.1-31.7-12.4-34-29.3C75.6,71.8,80.3,61,90.7,52.7c2.6-2,6.2-1.6,8.1,0.9
		c2,2.5,1.6,6-1,8.1c-3.6,2.8-6.3,6.2-7.9,10.6c-4.9,13.5,3.7,28.1,17.9,30.3c12.7,1.9,24.6-7.1,26-19.9
		c1.2-11.2-5.7-21.3-16.5-24.6c-12.4-3.8-19.8-12.2-21.7-25c-2.2-14.8,8.4-29.5,23.1-32.4c4.9-1,9.8-0.8,14.6,0.6
		c3.3,0.9,5.1,4,4.2,7.2c-0.8,3.1-4.1,4.9-7.4,3.9c-5.7-1.6-11.1-0.8-15.9,2.7c-5.8,4.3-8.4,10.3-7.2,17.5
		c1.3,7.5,5.8,12.3,13.1,14.6c13.6,4.3,22.1,13.4,24.6,27.4c3.4,18.9-9.6,36.5-28.4,39.5C114.8,114.2,113,114.3,111.4,114.4z"/>
	<path class="st0" d="M261.8,74.8c7.9,0,15.8,0,23.7,0c2.1,0,2.6-0.7,1.8-2.7c-3.7-9.5-13.1-15.3-23.2-14.5
		c-6.8,0.5-12.3,3.6-16.4,9c-2.1,2.6-5.5,3.1-8,1.1c-2.5-2-2.7-5.4-0.7-8c5-6.2,11.2-10.4,19-12.3c18.2-4.4,37,7.2,41.1,25.5
		c0.6,2.5,0.9,5.1,0.8,7.7c0,2.8-2.1,5.1-4.8,5.4c-2,0.2-4.1,0.1-6.2,0.1c-14.2,0-28.4,0-42.6,0c-2,0-2.6,0.8-1.8,2.7
		c3.5,9.4,13,15.4,23,14.7c6.9-0.5,12.5-3.6,16.7-9.1c1.9-2.5,5.3-3,7.8-1.2c2.5,1.9,3,5.3,1.1,7.8c-6.2,8.1-14.4,12.8-24.6,13.5
		c-17.2,1.2-32-10-35.9-26.8c-0.5-2.2-0.7-4.5-0.7-6.7c0-3.6,2.3-5.9,5.9-5.9c7.7,0,15.3,0,23,0C261.2,74.8,261.5,74.8,261.8,74.8z"
		/>
</g>
</svg>
